<svg xmlns="http://www.w3.org/2000/svg" viewBox="0 0 64 64">
  <defs>
    <linearGradient id="bg" x1="0" y1="0" x2="1" y2="1">
      <stop offset="0%" stop-color="#1a1a2e"/>
      <stop offset="100%" stop-color="#16213e"/>
    </linearGradient>
    <linearGradient id="heart" x1="0" y1="0" x2="1" y2="1">
      <stop offset="0%" stop-color="#ff2e63"/>
      <stop offset="100%" stop-color="#ff6b8a"/>
    </linearGradient>
  </defs>
  <rect x="2" y="2" width="60" height="60" rx="14" fill="url(#bg)"/>
  <path fill="url(#heart)" d="M32 50c-1 0-2-.4-2.8-1.1l-14-12.8C11 32.3 9 28.9 9 25.1 9 19.5 13.5 15 19.1 15c3.2 0 6.3 1.5 8.3 4 1.9-2.5 5-4 8.2-4C41.3 15 46 19.7 46 25.5c0 3.7-1.8 7.1-5 9.8l-11.2 13.7c-.8.7-1.8 1-2.8 1z"/>
</svg>
